# xmcd CD database file
#
# Track frame offsets:
#	150
#	29479
#	53280
#	74851
#
# Disc length: 1386 seconds
#
# Revision: 0
# Processed by: cddbd v1.5.1PL2 Copyright (c) Steve Scherf et al.
# Submitted via: CDex 1.51
#
DISCID=33056804
DTITLE=大山百合香 - 星の歴史 feat. U-DOU&PLATY
DYEAR=2006
DGENRE=JPop
TTITLE0=星の歴史 feat. U-DOU&PLATY
TTITLE1=永良部の子守唄〜Where is Your Mammy?〜いったーあんまーまーかいが
TTITLE2=小さな恋のうた
TTITLE3=星の歴史 (INSTRUMENTAL)
EXTD=YEAR: 2006
EXTT0=
EXTT1=
EXTT2=
EXTT3=
PLAYORDER=
